<?xml version="1.0" encoding="UTF-8"?>
<!DOCTYPE svg PUBLIC "-//W3C//DTD SVG 1.1//EN" "http://www.w3.org/Graphics/SVG/1.1/DTD/svg11.dtd">
<!-- Creator: CorelDRAW -->
<svg xmlns="http://www.w3.org/2000/svg" xml:space="preserve" width="60mm" height="14mm" style="shape-rendering:geometricPrecision; text-rendering:geometricPrecision; image-rendering:optimizeQuality; fill-rule:evenodd; clip-rule:evenodd"
viewBox="0 0 60 42.1978">
 <defs>
  <style type="text/css">
   <![CDATA[
    .fil3 {fill:none}
    .fil2 {fill:white}
    .fil1 {fill:#087EBB}
    .fil0 {fill:#FCFBF3}
    .fil4 {fill:#1D4480;fill-rule:nonzero}
   ]]>
  </style>
   <clipPath id="id0">
    <path d="M0 0l60 0 0 42.1978 -60 0 0 -42.1978z"/>
   </clipPath>
 </defs>
 <g id="Camada_x0020_1">
  <metadata id="CorelCorpID_0Corel-Layer"/>
  <polygon class="fil0" points="0,0 60,0 60,42.1978 0,42.1978 "/>
  <g style="clip-path:url(#id0)">
   <g id="_220497000">
    <path id="_220498032" class="fil0" d="M24.0602 12.2823c3.58108,-7.91077 40.0076,-17.6831 41.4783,-12.4244 0.592418,2.1182 3.43246,2.26411 6.36066,3.30831 17.8484,6.36462 25.3745,20.7699 16.8066,32.1683 -8.56793,11.3985 -29.9906,15.4807 -47.839,9.11611 -3.21119,-1.36596 -6.91701,-2.94105 -8.34508,-5.56563 -2.94653,-5.41543 -10.0624,-17.1854 -8.46152,-26.6027z"/>
    <image id="_220496904" transform="matrix(1 0 0 1 -10.304 26.6256)" x="30" y="-26.7371" width="47.836" height="47.836" xlink:href="banner2c_Images\banner2c_ImgID1.png"/>
    <path id="_220497408" class="fil1" d="M28.548 35.1215c6.85266,-1.41659 24.3411,13.114 20.8717,16.0149 -1.39741,1.16848 -0.70444,2.67297 -0.650044,4.59007 0.331516,11.6854 -8.18611,21.411 -19.0208,21.7184 -10.8347,0.307451 -19.8901,-8.91969 -20.2216,-20.605 0.103516,-2.19277 0.222,-4.72279 1.75787,-6.52365 3.16899,-3.71591 9.85589,-12.154 17.2629,-15.1948z"/>
    <g>
     <path id="_219773840" class="fil2" d="M28.4072 36.4873c-0.0795165,1.14284 -0.245802,2.30051 1.06358,3.20453 -0.0138462,-0.716967 -0.0603297,-1.434 0.446703,-2.15097 -0.23222,-0.631055 -0.767604,-0.949319 -1.51029,-1.05356z"/>
     <path id="_220497984" class="fil2" d="M32.0184 36.5877c-1.38389,0.512374 -2.31303,1.34743 -1.99451,3.3236 0.954527,0.301385 2.56029,-1.67044 1.99451,-3.3236z"/>
     <path id="_220496952" class="fil2" d="M32.3082 40.4009c-0.504725,0.784154 -1.46703,1.23903 -2.51123,1.08824 -1.43927,-0.207758 -2.48941,-1.48708 -2.34521,-2.85699 0.058022,-0.551077 0.300725,-1.03292 0.66356,-1.39859 -0.190945,0.296571 -0.316615,0.640286 -0.356176,1.01624 -0.144198,1.36985 0.906,2.64923 2.34514,2.85699 0.860176,0.12422 1.66484,-0.162593 2.20391,-0.70589z"/>
     <path id="_219772736" class="fil2" d="M32.833 37.8757c0.027033,0.14756 0.0413407,0.29967 0.0413407,0.455341 0,1.34525 -1.05738,2.43626 -2.36123,2.43626 -0.889714,0 -1.66451,-0.508154 -2.06697,-1.25835 0.468066,0.45356 1.0978,0.731604 1.79044,0.731604 1.3349,0 2.43646,-1.03207 2.59642,-2.36486z"/>
    </g>
   </g>
  </g>
  <polygon class="fil3" points="0,0 60,0 60,42.1978 0,42.1978 "/>
  <polygon class="fil4" points="4.34433,9.79345 4.34433,10.1417 4.91927,10.1417 4.91927,10.5978 4.34433,10.5978 4.34433,11.2727 3.76114,11.2727 3.76114,9.33738 4.97453,9.33738 4.97453,9.79345 "/>
  <path class="fil4" d="M5.97053 11.2727l0 -0.210527 -0.00547253 0c-0.0917143,0.162593 -0.23222,0.244154 -0.421055,0.244154 -0.130418,0 -0.232681,-0.0387033 -0.306396,-0.11611 -0.0737143,-0.0773407 -0.110571,-0.180593 -0.110571,-0.310484 0,-0.271319 0.166813,-0.428901 0.500769,-0.47222l0.342725 -0.0446374c0,-0.0447033 -0.0202418,-0.0815604 -0.0607912,-0.110571 -0.0405495,-0.0285495 -0.0948791,-0.0433187 -0.163055,-0.0433187 -0.154813,0 -0.31833,0.0442418 -0.490154,0.132659l0 -0.374044c0.0746374,-0.0322418 0.168132,-0.059011 0.280549,-0.0797143 0.112879,-0.0207033 0.209143,-0.0308571 0.288857,-0.0308571 0.234923,0 0.405363,0.0502418 0.510857,0.150198 0.105956,0.100418 0.158967,0.268088 0.158967,0.503077l0 0.762396 -0.525231 0zm-0.339956 -0.469912c0,0.0377802 0.0115385,0.0690989 0.0354725,0.0935604 0.0239341,0.0239341 0.058022,0.0363956 0.101802,0.0363956 0.0603297,0 0.109187,-0.0226154 0.146505,-0.0677143 0.0373187,-0.0447033 0.0561758,-0.10233 0.0561758,-0.172813l0 -0.0524835 -0.194374 0.0271648c-0.0971868,0.0161538 -0.145582,0.0612527 -0.145582,0.13589zm0.254769 -1.13097l-0.406352 0 0.403582 -0.433055 0.483231 0 -0.480462 0.433055z"/>
  <path class="fil4" d="M7.89343 11.2335c-0.0368571,0.0216264 -0.0948791,0.0391648 -0.17367,0.0525495 -0.0792527,0.0137802 -0.170901,0.0202418 -0.274088,0.0202418 -0.146044,0 -0.276,-0.0294725 -0.390659,-0.0884176 -0.114725,-0.059011 -0.20367,-0.141429 -0.266769,-0.247385 -0.0630989,-0.106418 -0.0944176,-0.225758 -0.0944176,-0.357956 0,-0.158044 0.0336264,-0.293934 0.100418,-0.406813 0.0672527,-0.112879 0.162593,-0.199451 0.287011,-0.258923 0.12389,-0.0598681 0.268088,-0.0898022 0.43167,-0.0898022 0.0902637,0 0.170901,0.00553846 0.242308,0.0174725 0.0714066,0.0115385 0.117956,0.0253846 0.138198,0.0405495l0 0.447824c-0.0285495,-0.0221538 -0.070022,-0.0419341 -0.123956,-0.0594725 -0.0538681,-0.017011 -0.10411,-0.0253187 -0.14967,-0.0253187 -0.112418,0 -0.19767,0.0267033 -0.255692,0.0801758 -0.058022,0.0534066 -0.0870989,0.128967 -0.0870989,0.226154 0,0.0954066 0.0286154,0.169582 0.0857143,0.222066 0.0570989,0.0525495 0.135429,0.0787912 0.235385,0.0787912 0.106879,0 0.205516,-0.0253187 0.295319,-0.0769451l0 0.425209z"/>
  <path class="fil4" d="M8.73185 9.51798c0,0.081033 -0.0294725,0.146901 -0.0884835,0.197143 -0.0589451,0.0507033 -0.136352,0.0755604 -0.232615,0.0755604 -0.0934945,0 -0.17044,-0.0257802 -0.230308,-0.0783297 -0.0599341,-0.0520879 -0.0894066,-0.117033 -0.0894066,-0.194374 0,-0.0787912 0.029011,-0.143275 0.0866374,-0.192132 0.058022,-0.0493187 0.13589,-0.0737143 0.233077,-0.0737143 0.0962637,0 0.17367,0.0243956 0.232615,0.0737143 0.059011,0.0488571 0.0884835,0.113341 0.0884835,0.192132zm-0.608571 1.7547l0 -1.38204 0.574945 0 0 1.38204 -0.574945 0z"/>
  <polygon class="fil4" points="8.97508,11.2727 8.97508,9.22681 9.55002,9.22681 9.55002,11.2727 "/>
  <polygon class="fil4" points="10.2115,11.5938 9.74716,11.5938 9.8849,10.9055 10.4046,10.9055 "/>
  <path class="fil4" d="M12.5182 10.3831c-0.0216923,-0.00969231 -0.0511648,-0.0188571 -0.088022,-0.0267033 -0.0368571,-0.00830769 -0.0672527,-0.0124615 -0.0916484,-0.0124615 -0.189824,0 -0.284703,0.11011 -0.284703,0.329407l0 0.599341 -0.574945 0 0 -1.38204 0.574945 0 0 0.242769 0.00553846 0c0.035011,-0.087033 0.0847253,-0.153429 0.149736,-0.198989 0.0644835,-0.0451648 0.140044,-0.0681758 0.226615,-0.0681758 0.0313187,0 0.0589451,0.00553846 0.0824835,0.0160879l0 0.500769z"/>
  <path class="fil4" d="M13.4505 11.2727l0 -0.210527 -0.00547253 0c-0.0917143,0.162593 -0.23222,0.244154 -0.421055,0.244154 -0.130418,0 -0.232681,-0.0387033 -0.306396,-0.11611 -0.0737143,-0.0773407 -0.110571,-0.180593 -0.110571,-0.310484 0,-0.271319 0.166813,-0.428901 0.500769,-0.47222l0.342725 -0.0446374c0,-0.0447033 -0.0202418,-0.0815604 -0.0607912,-0.110571 -0.0405495,-0.0285495 -0.0948791,-0.0433187 -0.163055,-0.0433187 -0.154813,0 -0.31833,0.0442418 -0.490154,0.132659l0 -0.374044c0.0746374,-0.0322418 0.168132,-0.059011 0.280549,-0.0797143 0.112879,-0.0207033 0.209143,-0.0308571 0.288857,-0.0308571 0.234923,0 0.405363,0.0502418 0.510857,0.150198 0.105956,0.100418 0.158967,0.268088 0.158967,0.503077l0 0.762396 -0.525231 0zm-0.339956 -0.469912c0,0.0377802 0.0115385,0.0690989 0.0354725,0.0935604 0.0239341,0.0239341 0.058022,0.0363956 0.101802,0.0363956 0.0603297,0 0.109187,-0.0226154 0.146505,-0.0677143 0.0373187,-0.0447033 0.0561758,-0.10233 0.0561758,-0.172813l0 -0.0524835 -0.194374 0.0271648c-0.0971868,0.0161538 -0.145582,0.0612527 -0.145582,0.13589zm0.254769 -1.13097l-0.406352 0 0.403582 -0.433055 0.483231 0 -0.480462 0.433055z"/>
  <path class="fil4" d="M15.7936 10.5398c0,0.151055 -0.0257802,0.284703 -0.0769451,0.400747 -0.0515604,0.11611 -0.12389,0.20644 -0.217451,0.27 -0.0934945,0.064022 -0.198989,0.0958022 -0.316022,0.0958022 -0.16167,0 -0.284703,-0.0589451 -0.368044,-0.176901l-0.00553846 0 0 0.779011 -0.574945 0 0 -2.01778 0.574945 0 0 0.187516 0.00553846 0c0.0455604,-0.0690989 0.105033,-0.123495 0.177824,-0.162659 0.0732527,-0.0391648 0.15567,-0.0584835 0.248308,-0.0584835 0.178286,0 0.314637,0.0594066 0.409978,0.177824 0.0948791,0.118879 0.142352,0.287473 0.142352,0.504923zm-0.583187 0.0174725c0,-0.087033 -0.0170769,-0.15567 -0.0507033,-0.204989 -0.0336264,-0.0493187 -0.0857143,-0.0741758 -0.155736,-0.0741758 -0.0612527,0 -0.110505,0.0257802 -0.148747,0.0783297 -0.0377802,0.052022 -0.0567033,0.123429 -0.0567033,0.214681l0 0.0267033c0,0.0875604 0.0166154,0.157121 0.0488571,0.209143 0.0322418,0.0525495 0.0810989,0.0783297 0.145582,0.0783297 0.0695604,0 0.122967,-0.0285495 0.160747,-0.0857143 0.0377802,-0.0570989 0.0567033,-0.137736 0.0567033,-0.242308z"/>
  <path class="fil4" d="M16.6182 9.51798c0,0.081033 -0.0294725,0.146901 -0.0884835,0.197143 -0.0589451,0.0507033 -0.136352,0.0755604 -0.232615,0.0755604 -0.0934945,0 -0.17044,-0.0257802 -0.230308,-0.0783297 -0.0599341,-0.0520879 -0.0894066,-0.117033 -0.0894066,-0.194374 0,-0.0787912 0.029011,-0.143275 0.0866374,-0.192132 0.058022,-0.0493187 0.13589,-0.0737143 0.233077,-0.0737143 0.0962637,0 0.17367,0.0243956 0.232615,0.0737143 0.059011,0.0488571 0.0884835,0.113341 0.0884835,0.192132zm-0.608571 1.7547l0 -1.38204 0.574945 0 0 1.38204 -0.574945 0z"/>
  <path class="fil4" d="M17.7847 11.2727l0 -0.160747 -0.00553846 0c-0.046022,0.0603297 -0.105495,0.107736 -0.17967,0.142352 -0.0737143,0.035011 -0.146505,0.052022 -0.218374,0.052022 -0.11789,0 -0.222,-0.029011 -0.311868,-0.087033 -0.0898022,-0.0580879 -0.157055,-0.139187 -0.201758,-0.243758 -0.0447033,-0.10411 -0.0667912,-0.227538 -0.0667912,-0.369429 0,-0.146967 0.0267033,-0.276857 0.0797143,-0.390198 0.0529451,-0.113341 0.127582,-0.201297 0.223846,-0.264462 0.0963297,-0.0630989 0.204527,-0.0944176 0.323868,-0.0944176 0.0567033,0 0.109187,0.00784615 0.157582,0.0239341 0.0478681,0.0166154 0.0898022,0.0382418 0.125275,0.0658681 0.0354725,0.0272308 0.0584835,0.0543956 0.0681758,0.0815604l0.00553846 0 0 -0.80156 0.574945 0 0 2.04587 -0.574945 0zm0.012 -0.732923c0,-0.0829451 -0.018,-0.146967 -0.0548571,-0.193055 -0.0363956,-0.0456264 -0.0856484,-0.0686374 -0.147429,-0.0686374 -0.0621758,0 -0.112813,0.0285495 -0.151978,0.0857143 -0.0391648,0.0570989 -0.0585495,0.133121 -0.0585495,0.228462 0,0.195363 0.0672527,0.293011 0.202286,0.293011 0.064022,0 0.115121,-0.0262418 0.153363,-0.0787912 0.0382418,-0.0524835 0.0571648,-0.129429 0.0571648,-0.230308l0 -0.0363956z"/>
  <path class="fil4" d="M20.1738 10.5572c0,0.233143 -0.0704835,0.41644 -0.211451,0.549626 -0.140505,0.133121 -0.337714,0.199451 -0.590176,0.199451 -0.251077,0 -0.446835,-0.0649451 -0.586418,-0.194835 -0.140044,-0.129956 -0.210066,-0.309165 -0.210066,-0.538088 0,-0.146505 0.0327033,-0.273692 0.0985714,-0.38189 0.0654066,-0.107802 0.159429,-0.190747 0.280549,-0.248308 0.121648,-0.0576264 0.261692,-0.0861758 0.41967,-0.0861758 0.164044,0 0.305934,0.0299341 0.426132,0.0902637 0.119802,0.0603956 0.212374,0.144198 0.276396,0.251077 0.0645495,0.106879 0.0967912,0.226681 0.0967912,0.358879zm-0.583253 0.00276923c0,-0.187978 -0.0718681,-0.281934 -0.216066,-0.281934 -0.143736,0 -0.215604,0.0985714 -0.215604,0.295319 0,0.20822 0.0727912,0.311868 0.218374,0.311868 0.142352,0 0.213297,-0.108264 0.213297,-0.325253z"/>
  <path class="fil4" d="M21.6516 10.7447c0.0101538,0.0594066 0.0442418,0.105956 0.102725,0.140044 0.0585495,0.0336264 0.13589,0.0507033 0.23222,0.0507033 0.134044,0 0.260703,-0.0258462 0.380505,-0.0769451l0 0.364352c-0.139582,0.0557802 -0.308637,0.0834066 -0.507692,0.0834066 -0.240923,0 -0.42844,-0.0617143 -0.562484,-0.184747 -0.134044,-0.123429 -0.201297,-0.292945 -0.201297,-0.509011 0,-0.148352 0.0294725,-0.279165 0.0884176,-0.392505 0.059011,-0.113341 0.146044,-0.202286 0.261692,-0.266769 0.115648,-0.064022 0.243231,-0.0962637 0.382813,-0.0962637 0.142813,0 0.265385,0.0276264 0.367187,0.0834066 0.101341,0.0557143 0.178747,0.134044 0.231231,0.234923 0.0525495,0.100879 0.0792527,0.218835 0.0792527,0.353802l0 0.215604 -0.854571 0zm0.345495 -0.300857c0,-0.159363 -0.0570989,-0.238615 -0.171363,-0.238615 -0.0478681,0 -0.0874945,0.0216923 -0.120198,0.0654066 -0.0322418,0.0433187 -0.0511648,0.101341 -0.0567033,0.173209l0.348264 0z"/>
  <path class="fil4" d="M24.3954 11.2727l0 -0.160747 -0.00553846 0c-0.046022,0.0603297 -0.105495,0.107736 -0.17967,0.142352 -0.0737143,0.035011 -0.146505,0.052022 -0.218374,0.052022 -0.11789,0 -0.222,-0.029011 -0.311868,-0.087033 -0.0898022,-0.0580879 -0.157055,-0.139187 -0.201758,-0.243758 -0.0447033,-0.10411 -0.0667912,-0.227538 -0.0667912,-0.369429 0,-0.146967 0.0267033,-0.276857 0.0797143,-0.390198 0.0529451,-0.113341 0.127582,-0.201297 0.223846,-0.264462 0.0963297,-0.0630989 0.204527,-0.0944176 0.323868,-0.0944176 0.0567033,0 0.109187,0.00784615 0.157582,0.0239341 0.0478681,0.0166154 0.0898022,0.0382418 0.125275,0.0658681 0.0354725,0.0272308 0.0584835,0.0543956 0.0681758,0.0815604l0.00553846 0 0 -0.80156 0.574945 0 0 2.04587 -0.574945 0zm0.012 -0.732923c0,-0.0829451 -0.018,-0.146967 -0.0548571,-0.193055 -0.0363956,-0.0456264 -0.0856484,-0.0686374 -0.147429,-0.0686374 -0.0621758,0 -0.112813,0.0285495 -0.151978,0.0857143 -0.0391648,0.0570989 -0.0585495,0.133121 -0.0585495,0.228462 0,0.195363 0.0672527,0.293011 0.202286,0.293011 0.064022,0 0.115121,-0.0262418 0.153363,-0.0787912 0.0382418,-0.0524835 0.0571648,-0.129429 0.0571648,-0.230308l0 -0.0363956z"/>
  <path class="fil4" d="M26.7845 10.5572c0,0.233143 -0.0704835,0.41644 -0.211451,0.549626 -0.140505,0.133121 -0.337714,0.199451 -0.590176,0.199451 -0.251077,0 -0.446835,-0.0649451 -0.586418,-0.194835 -0.140044,-0.129956 -0.210066,-0.309165 -0.210066,-0.538088 0,-0.146505 0.0327033,-0.273692 0.0985714,-0.38189 0.0654066,-0.107802 0.159429,-0.190747 0.280549,-0.248308 0.121648,-0.0576264 0.261692,-0.0861758 0.41967,-0.0861758 0.164044,0 0.305934,0.0299341 0.426132,0.0902637 0.119802,0.0603956 0.212374,0.144198 0.276396,0.251077 0.0645495,0.106879 0.0967912,0.226681 0.0967912,0.358879zm-0.583253 0.00276923c0,-0.187978 -0.0718681,-0.281934 -0.216066,-0.281934 -0.143736,0 -0.215604,0.0985714 -0.215604,0.295319 0,0.20822 0.0727912,0.311868 0.218374,0.311868 0.142352,0 0.213297,-0.108264 0.213297,-0.325253z"/>
  <path class="fil4" d="M4.83125 14.4905c0,0.156659 -0.0594066,0.27778 -0.178747,0.363495 -0.119275,0.0861099 -0.285099,0.128967 -0.498396,0.128967 -0.0622418,0 -0.139187,-0.006 -0.230374,-0.0188571 -0.0911868,-0.0124615 -0.165824,-0.0276923 -0.223451,-0.0456264l0 -0.403582c0.170044,0.0755604 0.312396,0.113341 0.426593,0.113341 0.112418,0 0.168659,-0.0294725 0.168659,-0.087956 0,-0.024 -0.0129231,-0.0442418 -0.0391648,-0.0599341 -0.0258462,-0.0156264 -0.0944835,-0.0419341 -0.205055,-0.0787912 -0.122505,-0.0386374 -0.211451,-0.0902637 -0.267165,-0.153824 -0.0557143,-0.064022 -0.0838681,-0.147429 -0.0838681,-0.249692 0,-0.143275 0.0571648,-0.256615 0.170967,-0.33956 0.113736,-0.0833407 0.273626,-0.124813 0.479538,-0.124813 0.120725,0 0.248308,0.0174725 0.383275,0.0524835l0 0.387495c-0.0566374,-0.0244615 -0.118352,-0.0447033 -0.186132,-0.0608571 -0.0672527,-0.0160879 -0.12389,-0.0243956 -0.169978,-0.0243956 -0.0377802,0 -0.0681758,0.00646154 -0.0902637,0.0188571 -0.0226154,0.0129231 -0.0340879,0.0304615 -0.0340879,0.053011 0,0.0257802 0.0123956,0.047011 0.0368571,0.0630989 0.0239341,0.0161538 0.0727912,0.0354725 0.145582,0.058022 0.141429,0.0414725 0.242308,0.0944835 0.30356,0.159429 0.0612527,0.0649451 0.0916484,0.14789 0.0916484,0.249692z"/>
  <path class="fil4" d="M5.5384 14.4214c0.0101538,0.0594066 0.0442418,0.105956 0.102725,0.140044 0.0585495,0.0336264 0.13589,0.0507033 0.23222,0.0507033 0.134044,0 0.260703,-0.0258462 0.380505,-0.0769451l0 0.364352c-0.139582,0.0557802 -0.308637,0.0834066 -0.507692,0.0834066 -0.240923,0 -0.42844,-0.0617143 -0.562484,-0.184747 -0.134044,-0.123429 -0.201297,-0.292945 -0.201297,-0.509011 0,-0.148352 0.0294725,-0.279165 0.0884176,-0.392505 0.059011,-0.113341 0.146044,-0.202286 0.261692,-0.266769 0.115648,-0.064022 0.243231,-0.0962637 0.382813,-0.0962637 0.142813,0 0.265385,0.0276264 0.367187,0.0834066 0.101341,0.0557143 0.178747,0.134044 0.231231,0.234923 0.0525495,0.100879 0.0792527,0.218835 0.0792527,0.353802l0 0.215604 -0.854571 0zm0.345495 -0.300857c0,-0.159363 -0.0570989,-0.238615 -0.171363,-0.238615 -0.0478681,0 -0.0874945,0.0216923 -0.120198,0.0654066 -0.0322418,0.0433187 -0.0511648,0.101341 -0.0567033,0.173209l0.348264 0z"/>
  <path class="fil4" d="M7.47092 14.9494l0 -0.213297 -0.00553846 0c-0.0474066,0.0658681 -0.0907253,0.113802 -0.128967,0.144659 -0.0382418,0.0303956 -0.0810989,0.0552527 -0.129429,0.0741758 -0.0479341,0.0188571 -0.10411,0.0280879 -0.168198,0.0280879 -0.151055,0 -0.266242,-0.0488571 -0.345495,-0.146967 -0.0787912,-0.0981099 -0.118352,-0.242769 -0.118352,-0.43444l0 -0.834264 0.574879 0 0 0.791011c0,0.13589 0.0507033,0.203604 0.152505,0.203604 0.0557143,0 0.0976484,-0.0184615 0.126198,-0.0553187 0.0281538,-0.0367912 0.0423956,-0.0888791 0.0423956,-0.156593l0 -0.782703 0.574945 0 0 1.38204 -0.574945 0z"/>
  <path class="fil4" d="M9.69785 13.1947c0,0.081033 -0.0294725,0.146901 -0.0884835,0.197143 -0.0589451,0.0507033 -0.136352,0.0755604 -0.232615,0.0755604 -0.0934945,0 -0.17044,-0.0257802 -0.230308,-0.0783297 -0.0599341,-0.0520879 -0.0894066,-0.117033 -0.0894066,-0.194374 0,-0.0787912 0.029011,-0.143275 0.0866374,-0.192132 0.058022,-0.0493187 0.13589,-0.0737143 0.233077,-0.0737143 0.0962637,0 0.17367,0.0243956 0.232615,0.0737143 0.059011,0.0488571 0.0884835,0.113341 0.0884835,0.192132zm-0.0336264 1.76809c0,0.121582 -0.0239341,0.232615 -0.0714066,0.332571 -0.0479341,0.100418 -0.117956,0.175978 -0.210527,0.227143 -0.0930989,0.0506374 -0.203143,0.076022 -0.330791,0.076022 -0.0704835,0 -0.146967,-0.0133846 -0.229385,-0.0405495l0 -0.421055c0.0501758,0.0280879 0.0962637,0.0419341 0.137736,0.0419341 0.0474066,0 0.081033,-0.0161538 0.100418,-0.0479341 0.0193187,-0.0317802 0.029011,-0.0801758 0.029011,-0.145121l0 -1.41844 0.574945 0 0 1.39543z"/>
  <path class="fil4" d="M10.4363 14.4214c0.0101538,0.0594066 0.0442418,0.105956 0.102725,0.140044 0.0585495,0.0336264 0.13589,0.0507033 0.23222,0.0507033 0.134044,0 0.260703,-0.0258462 0.380505,-0.0769451l0 0.364352c-0.139582,0.0557802 -0.308637,0.0834066 -0.507692,0.0834066 -0.240923,0 -0.42844,-0.0617143 -0.562484,-0.184747 -0.134044,-0.123429 -0.201297,-0.292945 -0.201297,-0.509011 0,-0.148352 0.0294725,-0.279165 0.0884176,-0.392505 0.059011,-0.113341 0.146044,-0.202286 0.261692,-0.266769 0.115648,-0.064022 0.243231,-0.0962637 0.382813,-0.0962637 0.142813,0 0.265385,0.0276264 0.367187,0.0834066 0.101341,0.0557143 0.178747,0.134044 0.231231,0.234923 0.0525495,0.100879 0.0792527,0.218835 0.0792527,0.353802l0 0.215604 -0.854571 0zm0.345495 -0.300857c0,-0.159363 -0.0570989,-0.238615 -0.171363,-0.238615 -0.0478681,0 -0.0874945,0.0216923 -0.120198,0.0654066 -0.0322418,0.0433187 -0.0511648,0.101341 -0.0567033,0.173209l0.348264 0z"/>
  <path class="fil4" d="M12.0975 13.1947c0,0.081033 -0.0294725,0.146901 -0.0884835,0.197143 -0.0589451,0.0507033 -0.136352,0.0755604 -0.232615,0.0755604 -0.0934945,0 -0.17044,-0.0257802 -0.230308,-0.0783297 -0.0599341,-0.0520879 -0.0894066,-0.117033 -0.0894066,-0.194374 0,-0.0787912 0.029011,-0.143275 0.0866374,-0.192132 0.058022,-0.0493187 0.13589,-0.0737143 0.233077,-0.0737143 0.0962637,0 0.17367,0.0243956 0.232615,0.0737143 0.059011,0.0488571 0.0884835,0.113341 0.0884835,0.192132zm-0.608571 1.7547l0 -1.38204 0.574945 0 0 1.38204 -0.574945 0z"/>
  <path class="fil4" d="M13.3137 14.9305c-0.0263077,0.0123956 -0.0686374,0.0243956 -0.12811,0.0359341 -0.0594066,0.011011 -0.130813,0.0165495 -0.214681,0.0165495 -0.160286,0 -0.285626,-0.0437802 -0.37589,-0.132198 -0.0903297,-0.088022 -0.135429,-0.213758 -0.135429,-0.376418l0 -0.509011 -0.217451 0 0 -0.398044 0.217451 0 0 -0.271319 0.566637 -0.156659 0 0.427978 0.287473 0 0 0.398044 -0.287473 0 0 0.414593c0,0.121187 0.0483297,0.181978 0.144659,0.181978 0.0446374,0 0.0925714,-0.00969231 0.142813,-0.0294725l0 0.398044z"/>
  <path class="fil4" d="M15.0307 14.2339c0,0.233143 -0.0704835,0.41644 -0.211451,0.549626 -0.140505,0.133121 -0.337714,0.199451 -0.590176,0.199451 -0.251077,0 -0.446835,-0.0649451 -0.586418,-0.194835 -0.140044,-0.129956 -0.210066,-0.309165 -0.210066,-0.538088 0,-0.146505 0.0327033,-0.273692 0.0985714,-0.38189 0.0654066,-0.107802 0.159429,-0.190747 0.280549,-0.248308 0.121648,-0.0576264 0.261692,-0.0861758 0.41967,-0.0861758 0.164044,0 0.305934,0.0299341 0.426132,0.0902637 0.119802,0.0603956 0.212374,0.144198 0.276396,0.251077 0.0645495,0.106879 0.0967912,0.226681 0.0967912,0.358879zm-0.583253 0.00276923c0,-0.187978 -0.0718681,-0.281934 -0.216066,-0.281934 -0.143736,0 -0.215604,0.0985714 -0.215604,0.295319 0,0.20822 0.0727912,0.311868 0.218374,0.311868 0.142352,0 0.213297,-0.108264 0.213297,-0.325253z"/>
  <path class="fil4" d="M17.5722 14.2164c0,0.151055 -0.0257802,0.284703 -0.0769451,0.400747 -0.0515604,0.11611 -0.12389,0.20644 -0.217451,0.27 -0.0934945,0.064022 -0.198989,0.0958022 -0.316022,0.0958022 -0.16167,0 -0.284703,-0.0589451 -0.368044,-0.176901l-0.00553846 0 0 0.779011 -0.574945 0 0 -2.01778 0.574945 0 0 0.187516 0.00553846 0c0.0455604,-0.0690989 0.105033,-0.123495 0.177824,-0.162659 0.0732527,-0.0391648 0.15567,-0.0584835 0.248308,-0.0584835 0.178286,0 0.314637,0.0594066 0.409978,0.177824 0.0948791,0.118879 0.142352,0.287473 0.142352,0.504923zm-0.583187 0.0174725c0,-0.087033 -0.0170769,-0.15567 -0.0507033,-0.204989 -0.0336264,-0.0493187 -0.0857143,-0.0741758 -0.155736,-0.0741758 -0.0612527,0 -0.110505,0.0257802 -0.148747,0.0783297 -0.0377802,0.052022 -0.0567033,0.123429 -0.0567033,0.214681l0 0.0267033c0,0.0875604 0.0166154,0.157121 0.0488571,0.209143 0.0322418,0.0525495 0.0810989,0.0783297 0.145582,0.0783297 0.0695604,0 0.122967,-0.0285495 0.160747,-0.0857143 0.0377802,-0.0570989 0.0567033,-0.137736 0.0567033,-0.242308z"/>
  <path class="fil4" d="M18.2835 14.4214c0.0101538,0.0594066 0.0442418,0.105956 0.102725,0.140044 0.0585495,0.0336264 0.13589,0.0507033 0.23222,0.0507033 0.134044,0 0.260703,-0.0258462 0.380505,-0.0769451l0 0.364352c-0.139582,0.0557802 -0.308637,0.0834066 -0.507692,0.0834066 -0.240923,0 -0.42844,-0.0617143 -0.562484,-0.184747 -0.134044,-0.123429 -0.201297,-0.292945 -0.201297,-0.509011 0,-0.148352 0.0294725,-0.279165 0.0884176,-0.392505 0.059011,-0.113341 0.146044,-0.202286 0.261692,-0.266769 0.115648,-0.064022 0.243231,-0.0962637 0.382813,-0.0962637 0.142813,0 0.265385,0.0276264 0.367187,0.0834066 0.101341,0.0557143 0.178747,0.134044 0.231231,0.234923 0.0525495,0.100879 0.0792527,0.218835 0.0792527,0.353802l0 0.215604 -0.854571 0zm0.345495 -0.300857c0,-0.159363 -0.0570989,-0.238615 -0.171363,-0.238615 -0.0478681,0 -0.0874945,0.0216923 -0.120198,0.0654066 -0.0322418,0.0433187 -0.0511648,0.101341 -0.0567033,0.173209l0.348264 0z"/>
  <path class="fil4" d="M20.475 14.9102c-0.0755604,0.0451648 -0.217451,0.0690989 -0.426132,0.0727912l0 0.0552527c0.175516,0.0129231 0.263077,0.0930989 0.263077,0.240527 0,0.099956 -0.0405495,0.17644 -0.12211,0.229385 -0.0815604,0.053011 -0.197143,0.0797143 -0.347802,0.0797143 -0.0483956,0 -0.099956,-0.00276923 -0.154813,-0.00830769l0 -0.232154c0.0331648,0.00738462 0.070022,0.011011 0.110571,0.011011 0.0511648,0 0.0898681,-0.00731868 0.11611,-0.0225495 0.0257802,-0.0147033 0.0391648,-0.0336264 0.0391648,-0.0570989 0,-0.0281538 -0.0106154,-0.0483956 -0.0313187,-0.0613187 -0.0207692,-0.0133187 -0.0567033,-0.0197802 -0.107802,-0.0197802l-0.0244615 0 -0.0280879 0.00276923 0 -0.255231c-0.152044,-0.0465495 -0.271319,-0.128505 -0.357033,-0.245538 -0.0861099,-0.117033 -0.128967,-0.253846 -0.128967,-0.41044 0,-0.158044 0.0336264,-0.293934 0.100418,-0.406813 0.0672527,-0.112879 0.162593,-0.199451 0.287011,-0.258923 0.12389,-0.0598681 0.268088,-0.0898022 0.43167,-0.0898022 0.0902637,0 0.170901,0.00553846 0.242308,0.0174725 0.0714066,0.0115385 0.117956,0.0253846 0.138198,0.0405495l0 0.447824c-0.0285495,-0.0221538 -0.070022,-0.0419341 -0.123956,-0.0594725 -0.0538681,-0.017011 -0.10411,-0.0253187 -0.14967,-0.0253187 -0.113341,0 -0.199055,0.0262418 -0.256615,0.0797143 -0.0575604,0.0529451 -0.0861758,0.128505 -0.0861758,0.226615 0,0.0954066 0.0281538,0.169582 0.0847912,0.222066 0.0566374,0.0525495 0.135429,0.0787912 0.236308,0.0787912 0.106879,0 0.205516,-0.0253187 0.295319,-0.0769451l0 0.425209z"/>
  <path class="fil4" d="M21.4714 14.9494l0 -0.210527 -0.00547253 0c-0.0917143,0.162593 -0.23222,0.244154 -0.421055,0.244154 -0.130418,0 -0.232681,-0.0387033 -0.306396,-0.11611 -0.0737143,-0.0773407 -0.110571,-0.180593 -0.110571,-0.310484 0,-0.271319 0.166813,-0.428901 0.500769,-0.47222l0.342725 -0.0446374c0,-0.0447033 -0.0202418,-0.0815604 -0.0607912,-0.110571 -0.0405495,-0.0285495 -0.0948791,-0.0433187 -0.163055,-0.0433187 -0.154813,0 -0.31833,0.0442418 -0.490154,0.132659l0 -0.374044c0.0746374,-0.0322418 0.168132,-0.059011 0.280549,-0.0797143 0.112879,-0.0207033 0.209143,-0.0308571 0.288857,-0.0308571 0.234923,0 0.405363,0.0502418 0.510857,0.150198 0.105956,0.100418 0.158967,0.268088 0.158967,0.503077l0 0.762396 -0.525231 0zm-0.339956 -0.469912c0,0.0377802 0.0115385,0.0690989 0.0354725,0.0935604 0.0239341,0.0239341 0.058022,0.0363956 0.101802,0.0363956 0.0603297,0 0.109187,-0.0226154 0.146505,-0.0677143 0.0373187,-0.0447033 0.0561758,-0.10233 0.0561758,-0.172813l0 -0.0524835 -0.194374 0.0271648c-0.0971868,0.0161538 -0.145582,0.0612527 -0.145582,0.13589z"/>
  <path class="fil4" d="M24.146 14.4905c0,0.156659 -0.0594066,0.27778 -0.178747,0.363495 -0.119275,0.0861099 -0.285099,0.128967 -0.498396,0.128967 -0.0622418,0 -0.139187,-0.006 -0.230374,-0.0188571 -0.0911868,-0.0124615 -0.165824,-0.0276923 -0.223451,-0.0456264l0 -0.403582c0.170044,0.0755604 0.312396,0.113341 0.426593,0.113341 0.112418,0 0.168659,-0.0294725 0.168659,-0.087956 0,-0.024 -0.0129231,-0.0442418 -0.0391648,-0.0599341 -0.0258462,-0.0156264 -0.0944835,-0.0419341 -0.205055,-0.0787912 -0.122505,-0.0386374 -0.211451,-0.0902637 -0.267165,-0.153824 -0.0557143,-0.064022 -0.0838681,-0.147429 -0.0838681,-0.249692 0,-0.143275 0.0571648,-0.256615 0.170967,-0.33956 0.113736,-0.0833407 0.273626,-0.124813 0.479538,-0.124813 0.120725,0 0.248308,0.0174725 0.383275,0.0524835l0 0.387495c-0.0566374,-0.0244615 -0.118352,-0.0447033 -0.186132,-0.0608571 -0.0672527,-0.0160879 -0.12389,-0.0243956 -0.169978,-0.0243956 -0.0377802,0 -0.0681758,0.00646154 -0.0902637,0.0188571 -0.0226154,0.0129231 -0.0340879,0.0304615 -0.0340879,0.053011 0,0.0257802 0.0123956,0.047011 0.0368571,0.0630989 0.0239341,0.0161538 0.0727912,0.0354725 0.145582,0.058022 0.141429,0.0414725 0.242308,0.0944835 0.30356,0.159429 0.0612527,0.0649451 0.0916484,0.14789 0.0916484,0.249692z"/>
  <path class="fil4" d="M25.2378 14.9494l0 -0.213297 -0.00553846 0c-0.0474066,0.0658681 -0.0907253,0.113802 -0.128967,0.144659 -0.0382418,0.0303956 -0.0810989,0.0552527 -0.129429,0.0741758 -0.0479341,0.0188571 -0.10411,0.0280879 -0.168198,0.0280879 -0.151055,0 -0.266242,-0.0488571 -0.345495,-0.146967 -0.0787912,-0.0981099 -0.118352,-0.242769 -0.118352,-0.43444l0 -0.834264 0.574879 0 0 0.791011c0,0.13589 0.0507033,0.203604 0.152505,0.203604 0.0557143,0 0.0976484,-0.0184615 0.126198,-0.0553187 0.0281538,-0.0367912 0.0423956,-0.0888791 0.0423956,-0.156593l0 -0.782703 0.574945 0 0 1.38204 -0.574945 0z"/>
  <path class="fil4" d="M26.8548 14.9494l0 -0.210527 -0.00547253 0c-0.0917143,0.162593 -0.23222,0.244154 -0.421055,0.244154 -0.130418,0 -0.232681,-0.0387033 -0.306396,-0.11611 -0.0737143,-0.0773407 -0.110571,-0.180593 -0.110571,-0.310484 0,-0.271319 0.166813,-0.428901 0.500769,-0.47222l0.342725 -0.0446374c0,-0.0447033 -0.0202418,-0.0815604 -0.0607912,-0.110571 -0.0405495,-0.0285495 -0.0948791,-0.0433187 -0.163055,-0.0433187 -0.154813,0 -0.31833,0.0442418 -0.490154,0.132659l0 -0.374044c0.0746374,-0.0322418 0.168132,-0.059011 0.280549,-0.0797143 0.112879,-0.0207033 0.209143,-0.0308571 0.288857,-0.0308571 0.234923,0 0.405363,0.0502418 0.510857,0.150198 0.105956,0.100418 0.158967,0.268088 0.158967,0.503077l0 0.762396 -0.525231 0zm-0.339956 -0.469912c0,0.0377802 0.0115385,0.0690989 0.0354725,0.0935604 0.0239341,0.0239341 0.058022,0.0363956 0.101802,0.0363956 0.0603297,0 0.109187,-0.0226154 0.146505,-0.0677143 0.0373187,-0.0447033 0.0561758,-0.10233 0.0561758,-0.172813l0 -0.0524835 -0.194374 0.0271648c-0.0971868,0.0161538 -0.145582,0.0612527 -0.145582,0.13589z"/>
  <path class="fil4" d="M4.77323 16.9985c-0.0594066,-0.0207033 -0.114725,-0.0313187 -0.165824,-0.0313187 -0.064022,0 -0.111033,0.0165495 -0.14189,0.0492527 -0.0303956,0.0331648 -0.0456264,0.0774066 -0.0456264,0.133187l0 0.0944176 0.319714 0 0 0.398044 -0.319714 0 0 0.984 -0.574945 0 0 -0.984 -0.232154 0 0 -0.398044 0.232154 0 0 -0.126659c0,-0.112879 0.0258462,-0.211912 0.0783297,-0.297626 0.0520879,-0.0861758 0.127582,-0.152967 0.227143,-0.200374 0.0994945,-0.0479341 0.220154,-0.0718681 0.362505,-0.0718681 0.102791,0 0.189363,0.0100879 0.260308,0.0299341l0 0.421055z"/>
  <path class="fil4" d="M6.43767 17.9106c0,0.233143 -0.0704835,0.41644 -0.211451,0.549626 -0.140505,0.133121 -0.337714,0.199451 -0.590176,0.199451 -0.251077,0 -0.446835,-0.0649451 -0.586418,-0.194835 -0.140044,-0.129956 -0.210066,-0.309165 -0.210066,-0.538088 0,-0.146505 0.0327033,-0.273692 0.0985714,-0.38189 0.0654066,-0.107802 0.159429,-0.190747 0.280549,-0.248308 0.121648,-0.0576264 0.261692,-0.0861758 0.41967,-0.0861758 0.164044,0 0.305934,0.0299341 0.426132,0.0902637 0.119802,0.0603956 0.212374,0.144198 0.276396,0.251077 0.0645495,0.106879 0.0967912,0.226681 0.0967912,0.358879zm-0.583253 0.00276923c0,-0.187978 -0.0718681,-0.281934 -0.216066,-0.281934 -0.143736,0 -0.215604,0.0985714 -0.215604,0.295319 0,0.20822 0.0727912,0.311868 0.218374,0.311868 0.142352,0 0.213297,-0.108264 0.213297,-0.325253zm-0.144198 -0.888198l-0.406286 0 0.403516 -0.433055 0.483297 0 -0.480527 0.433055z"/>
  <path class="fil4" d="M7.69167 17.7365c-0.0216923,-0.00969231 -0.0511648,-0.0188571 -0.088022,-0.0267033 -0.0368571,-0.00830769 -0.0672527,-0.0124615 -0.0916484,-0.0124615 -0.189824,0 -0.284703,0.11011 -0.284703,0.329407l0 0.599341 -0.574945 0 0 -1.38204 0.574945 0 0 0.242769 0.00553846 0c0.035011,-0.087033 0.0847253,-0.153429 0.149736,-0.198989 0.0644835,-0.0451648 0.140044,-0.0681758 0.226615,-0.0681758 0.0313187,0 0.0589451,0.00553846 0.0824835,0.0160879l0 0.500769z"/>
  <path class="fil4" d="M9.64958 18.626l0 -0.796549c0,-0.0663297 -0.0115385,-0.116044 -0.0354725,-0.148747 -0.024,-0.0331648 -0.0627033,-0.0493187 -0.117033,-0.0493187 -0.053011,0 -0.0944176,0.0198462 -0.123956,0.0598681 -0.0299341,0.0400879 -0.0446374,0.0958681 -0.0446374,0.166813l0 0.767934 -0.574945 0 0 -0.782703c0,-0.141429 -0.0479341,-0.211912 -0.144198,-0.211912 -0.0584835,0 -0.102725,0.0202418 -0.132198,0.0612527 -0.03,0.041011 -0.0447033,0.0995604 -0.0447033,0.175978l0 0.757385 -0.574945 0 0 -1.38204 0.574945 0 0 0.218835 0.00553846 0c0.0211648,-0.0387033 0.0557143,-0.0783297 0.103187,-0.118418 0.0469451,-0.0400879 0.100418,-0.0723297 0.159824,-0.0971868 0.0594725,-0.0243956 0.123495,-0.0368571 0.193055,-0.0368571 0.0981099,0 0.180593,0.0193187 0.247385,0.058022 0.0672527,0.0387033 0.123429,0.099956 0.168132,0.183363 0.0488571,-0.0774066 0.113341,-0.136813 0.19444,-0.178747 0.081033,-0.0419341 0.170901,-0.0626374 0.269934,-0.0626374 0.144659,0 0.256154,0.047011 0.33356,0.141429 0.0773407,0.0944176 0.116044,0.230769 0.116044,0.409055l0 0.865187 -0.573956 0z"/>
  <path class="fil4" d="M11.3637 18.626l0 -0.213297 -0.00553846 0c-0.0474066,0.0658681 -0.0907253,0.113802 -0.128967,0.144659 -0.0382418,0.0303956 -0.0810989,0.0552527 -0.129429,0.0741758 -0.0479341,0.0188571 -0.10411,0.0280879 -0.168198,0.0280879 -0.151055,0 -0.266242,-0.0488571 -0.345495,-0.146967 -0.0787912,-0.0981099 -0.118352,-0.242769 -0.118352,-0.43444l0 -0.834264 0.574879 0 0 0.791011c0,0.13589 0.0507033,0.203604 0.152505,0.203604 0.0557143,0 0.0976484,-0.0184615 0.126198,-0.0553187 0.0281538,-0.0367912 0.0423956,-0.0888791 0.0423956,-0.156593l0 -0.782703 0.574945 0 0 1.38204 -0.574945 0z"/>
  <polygon class="fil4" points="12.2142,18.626 12.2142,16.5802 12.7891,16.5802 12.7891,18.626 "/>
  <path class="fil4" d="M13.8325 18.626l0 -0.210527 -0.00547253 0c-0.0917143,0.162593 -0.23222,0.244154 -0.421055,0.244154 -0.130418,0 -0.232681,-0.0387033 -0.306396,-0.11611 -0.0737143,-0.0773407 -0.110571,-0.180593 -0.110571,-0.310484 0,-0.271319 0.166813,-0.428901 0.500769,-0.47222l0.342725 -0.0446374c0,-0.0447033 -0.0202418,-0.0815604 -0.0607912,-0.110571 -0.0405495,-0.0285495 -0.0948791,-0.0433187 -0.163055,-0.0433187 -0.154813,0 -0.31833,0.0442418 -0.490154,0.132659l0 -0.374044c0.0746374,-0.0322418 0.168132,-0.059011 0.280549,-0.0797143 0.112879,-0.0207033 0.209143,-0.0308571 0.288857,-0.0308571 0.234923,0 0.405363,0.0502418 0.510857,0.150198 0.105956,0.100418 0.158967,0.268088 0.158967,0.503077l0 0.762396 -0.525231 0zm-0.339956 -0.469912c0,0.0377802 0.0115385,0.0690989 0.0354725,0.0935604 0.0239341,0.0239341 0.058022,0.0363956 0.101802,0.0363956 0.0603297,0 0.109187,-0.0226154 0.146505,-0.0677143 0.0373187,-0.0447033 0.0561758,-0.10233 0.0561758,-0.172813l0 -0.0524835 -0.194374 0.0271648c-0.0971868,0.0161538 -0.145582,0.0612527 -0.145582,0.13589z"/>
  <path class="fil4" d="M16.9218 17.9106c0,0.233143 -0.0704835,0.41644 -0.211451,0.549626 -0.140505,0.133121 -0.337714,0.199451 -0.590176,0.199451 -0.251077,0 -0.446835,-0.0649451 -0.586418,-0.194835 -0.140044,-0.129956 -0.210066,-0.309165 -0.210066,-0.538088 0,-0.146505 0.0327033,-0.273692 0.0985714,-0.38189 0.0654066,-0.107802 0.159429,-0.190747 0.280549,-0.248308 0.121648,-0.0576264 0.261692,-0.0861758 0.41967,-0.0861758 0.164044,0 0.305934,0.0299341 0.426132,0.0902637 0.119802,0.0603956 0.212374,0.144198 0.276396,0.251077 0.0645495,0.106879 0.0967912,0.226681 0.0967912,0.358879zm-0.583253 0.00276923c0,-0.187978 -0.0718681,-0.281934 -0.216066,-0.281934 -0.143736,0 -0.215604,0.0985714 -0.215604,0.295319 0,0.20822 0.0727912,0.311868 0.218374,0.311868 0.142352,0 0.213297,-0.108264 0.213297,-0.325253z"/>
  <path class="fil4" d="M18.0326 18.626l0 -0.754615c0,-0.0851868 -0.0129231,-0.146967 -0.0382418,-0.184286 -0.0257802,-0.0372527 -0.0672527,-0.0557143 -0.124879,-0.0557143 -0.0497143,0 -0.0884176,0.0193846 -0.116044,0.058022 -0.0281538,0.0387033 -0.0419341,0.088022 -0.0419341,0.148352l0 0.788242 -0.574945 0 0 -1.38204 0.574945 0 0 0.216066 0.00553846 0c0.0455604,-0.0792527 0.107341,-0.140505 0.184747,-0.184286 0.0773407,-0.0437802 0.16167,-0.0654066 0.252396,-0.0654066 0.302242,0 0.453363,0.190747 0.453363,0.572176l0 0.843495 -0.574945 0z"/>
  <polygon class="fil4" points="18.8668,18.626 18.8668,16.5802 19.4418,16.5802 19.4418,18.626 "/>
  <path class="fil4" d="M20.3272 16.8713c0,0.081033 -0.0294725,0.146901 -0.0884835,0.197143 -0.0589451,0.0507033 -0.136352,0.0755604 -0.232615,0.0755604 -0.0934945,0 -0.17044,-0.0257802 -0.230308,-0.0783297 -0.0599341,-0.0520879 -0.0894066,-0.117033 -0.0894066,-0.194374 0,-0.0787912 0.029011,-0.143275 0.0866374,-0.192132 0.058022,-0.0493187 0.13589,-0.0737143 0.233077,-0.0737143 0.0962637,0 0.17367,0.0243956 0.232615,0.0737143 0.059011,0.0488571 0.0884835,0.113341 0.0884835,0.192132zm-0.608571 1.7547l0 -1.38204 0.574945 0 0 1.38204 -0.574945 0z"/>
  <path class="fil4" d="M21.4665 18.626l0 -0.754615c0,-0.0851868 -0.0129231,-0.146967 -0.0382418,-0.184286 -0.0257802,-0.0372527 -0.0672527,-0.0557143 -0.124879,-0.0557143 -0.0497143,0 -0.0884176,0.0193846 -0.116044,0.058022 -0.0281538,0.0387033 -0.0419341,0.088022 -0.0419341,0.148352l0 0.788242 -0.574945 0 0 -1.38204 0.574945 0 0 0.216066 0.00553846 0c0.0455604,-0.0792527 0.107341,-0.140505 0.184747,-0.184286 0.0773407,-0.0437802 0.16167,-0.0654066 0.252396,-0.0654066 0.302242,0 0.453363,0.190747 0.453363,0.572176l0 0.843495 -0.574945 0z"/>
  <path class="fil4" d="M22.796 18.0981c0.0101538,0.0594066 0.0442418,0.105956 0.102725,0.140044 0.0585495,0.0336264 0.13589,0.0507033 0.23222,0.0507033 0.134044,0 0.260703,-0.0258462 0.380505,-0.0769451l0 0.364352c-0.139582,0.0557802 -0.308637,0.0834066 -0.507692,0.0834066 -0.240923,0 -0.42844,-0.0617143 -0.562484,-0.184747 -0.134044,-0.123429 -0.201297,-0.292945 -0.201297,-0.509011 0,-0.148352 0.0294725,-0.279165 0.0884176,-0.392505 0.059011,-0.113341 0.146044,-0.202286 0.261692,-0.266769 0.115648,-0.064022 0.243231,-0.0962637 0.382813,-0.0962637 0.142813,0 0.265385,0.0276264 0.367187,0.0834066 0.101341,0.0557143 0.178747,0.134044 0.231231,0.234923 0.0525495,0.100879 0.0792527,0.218835 0.0792527,0.353802l0 0.215604 -0.854571 0zm0.345495 -0.300857c0,-0.159363 -0.0570989,-0.238615 -0.171363,-0.238615 -0.0478681,0 -0.0874945,0.0216923 -0.120198,0.0654066 -0.0322418,0.0433187 -0.0511648,0.101341 -0.0567033,0.173209l0.348264 0z"/>
  <path class="fil4" d="M24.4733 18.386c0,0.0814945 -0.0285495,0.14789 -0.0861099,0.198066 -0.0575604,0.0507033 -0.137275,0.0755604 -0.239077,0.0755604 -0.0926374,0 -0.168198,-0.0262418 -0.227143,-0.0787912 -0.0589451,-0.0524835 -0.0884176,-0.11789 -0.0884176,-0.194835 0,-0.0792527 0.029011,-0.143736 0.087033,-0.192593 0.058022,-0.0487912 0.13589,-0.0737143 0.234066,-0.0737143 0.0953407,0 0.172286,0.0249231 0.231231,0.0737143 0.0589451,0.0488571 0.0884176,0.113341 0.0884176,0.192593z"/>
  <path class="fil4" d="M4.87068 22.5876l0.193582 0.0263077c-0.024989,0.0855824 -0.074044,0.156396 -0.14644,0.212176 -0.0727912,0.0557143 -0.16378,0.0836044 -0.273429,0.0836044 -0.131341,0 -0.237099,-0.0441758 -0.317275,-0.132659 -0.0801099,-0.0881538 -0.120132,-0.207692 -0.120132,-0.358615 0,-0.143275 0.0403516,-0.261824 0.121121,-0.355714 0.0807692,-0.093956 0.190352,-0.141033 0.328484,-0.141033 0.135231,0 0.239736,0.0464835 0.31378,0.139055 0.0737143,0.0926374 0.110571,0.211516 0.110571,0.356703l-0.000659341 0.0247253 -0.650901 0c0,0.0644176 0.00606593,0.115978 0.0182637,0.154747 0.0121978,0.0387692 0.0365275,0.0724615 0.0727253,0.101275 0.0365275,0.0288791 0.0817582,0.0433187 0.13622,0.0433187 0.105758,0 0.177231,-0.0512967 0.214088,-0.15389zm-0.0131209 -0.283582c-0.000659341,-0.0683077 -0.0211648,-0.124022 -0.0615165,-0.167341 -0.0404176,-0.0429231 -0.0900659,-0.0646813 -0.14967,-0.0646813 -0.059011,0 -0.108,0.0201758 -0.147429,0.0605275 -0.0394286,0.0404176 -0.0625055,0.0974505 -0.0695604,0.171495l0.428176 0z"/>
  <path class="fil4" d="M6.30422 22.5414l0.184286 0.0189231c-0.0240659,0.118945 -0.0698901,0.206703 -0.138132,0.263802 -0.0682418,0.057033 -0.150593,0.0855165 -0.247055,0.0855165 -0.130813,0 -0.231429,-0.0477363 -0.301582,-0.143209 -0.0705495,-0.0955385 -0.105758,-0.212505 -0.105758,-0.350967 0,-0.142615 0.0384396,-0.260571 0.115319,-0.353802 0.0772747,-0.0932308 0.179802,-0.140044 0.308044,-0.140044 0.206703,0 0.329736,0.108989 0.369165,0.326901l-0.184286 0.0253187c-0.016022,-0.117626 -0.074044,-0.176571 -0.17367,-0.176571 -0.0724615,0 -0.125341,0.0317143 -0.158044,0.0954725 -0.032967,0.0634286 -0.0493187,0.140374 -0.0493187,0.23044 0,0.0958022 0.0169451,0.169516 0.0512967,0.221473 0.033956,0.0518901 0.0816923,0.0781978 0.142879,0.0781978 0.093956,0 0.156396,-0.0605934 0.186857,-0.181451z"/>
  <path class="fil4" d="M7.02376 22.9096c-0.140374,0 -0.247451,-0.0506374 -0.321165,-0.151253 -0.073978,-0.100945 -0.110835,-0.21633 -0.110835,-0.346418 0,-0.140374 0.0406813,-0.257077 0.122374,-0.350308 0.0817582,-0.0932308 0.189758,-0.140044 0.323736,-0.140044 0.126857,0 0.231363,0.0454945 0.313121,0.13622 0.0813626,0.0906593 0.122374,0.208945 0.122374,0.354132 0,0.14967 -0.0422637,0.269802 -0.127187,0.360857 -0.0849231,0.090989 -0.19233,0.136813 -0.322418,0.136813zm0.00738462 -0.176571c0.143868,0 0.216,-0.107341 0.216,-0.322088 0,-0.0971209 -0.0173407,-0.17367 -0.0516264,-0.229451 -0.0346154,-0.0561099 -0.0874945,-0.0842637 -0.158637,-0.0842637 -0.074044,0 -0.128835,0.0291429 -0.164374,0.0868352 -0.0356044,0.058022 -0.0535385,0.134901 -0.0535385,0.230703 0,0.103253 0.0189231,0.182044 0.0567033,0.236571 0.0378462,0.0544615 0.0897363,0.0816923 0.155473,0.0816923z"/>
  <path class="fil4" d="M8.45473 22.8898l-0.214088 0 0 -0.592549c0,-0.0625055 -0.0144396,-0.109648 -0.0432527,-0.141363 -0.0288791,-0.0313846 -0.0634945,-0.0474066 -0.104176,-0.0474066 -0.0557802,0 -0.104835,0.0246593 -0.14644,0.0733846 -0.042,0.0487253 -0.0631648,0.12244 -0.0631648,0.220484l0 0.487451 -0.214088 0 0 -0.94833 0.195495 0 0 0.21989c0.0682418,-0.159626 0.16378,-0.239736 0.287143,-0.239736 0.0833407,0 0.154484,0.0265714 0.213758,0.0791868 0.059011,0.0525495 0.0888132,0.144857 0.0888132,0.276857l0 0.612132z"/>
  <path class="fil4" d="M9.15013 22.7229l0 0.166945c-0.0637582,0.0137802 -0.113143,0.0205055 -0.148088,0.0205055 -0.0576264,0 -0.107011,-0.0112088 -0.148352,-0.033956 -0.0413407,-0.0230769 -0.0714725,-0.0541978 -0.0907253,-0.0938901 -0.0191868,-0.0397582 -0.0284835,-0.100945 -0.0284835,-0.183626l0 -0.491011 -0.118615 0 0 -0.166352 0.130813 0 0.0195165 -0.247055 0.175648 -0.0156923 0 0.262747 0.190681 0 0 0.166352 -0.190681 0 0 0.462791c0,0.0592747 0.0108791,0.099956 0.0323736,0.121451 0.0217582,0.0217582 0.0624396,0.0323736 0.122374,0.0323736 0.017011,0 0.0349451,-0.000659341 0.0535385,-0.00158242z"/>
  <path class="fil4" d="M9.54369 21.8306l-0.214022 0 0 -0.222396 0.214022 0 0 0.222396zm0 1.05923l-0.214022 0 0 -0.94833 0.214022 0 0 0.94833z"/>
  <path class="fil4" d="M10.5862 22.8898l-0.214088 0 0 -0.592549c0,-0.0625055 -0.0144396,-0.109648 -0.0432527,-0.141363 -0.0288791,-0.0313846 -0.0634945,-0.0474066 -0.104176,-0.0474066 -0.0557802,0 -0.104835,0.0246593 -0.14644,0.0733846 -0.042,0.0487253 -0.0631648,0.12244 -0.0631648,0.220484l0 0.487451 -0.214088 0 0 -0.94833 0.195495 0 0 0.21989c0.0682418,-0.159626 0.16378,-0.239736 0.287143,-0.239736 0.0833407,0 0.154484,0.0265714 0.213758,0.0791868 0.059011,0.0525495 0.0888132,0.144857 0.0888132,0.276857l0 0.612132z"/>
  <path class="fil4" d="M11.6227 22.8898l-0.199055 0 0 -0.204791c-0.0538022,0.14967 -0.153824,0.224637 -0.299604,0.224637 -0.0862418,0 -0.154813,-0.0269011 -0.205451,-0.0804396 -0.050967,-0.0534725 -0.0762857,-0.128176 -0.0762857,-0.223978l0 -0.663758 0.218901 0 0 0.617934c0,0.0682418 0.015033,0.112813 0.0451648,0.134242 0.0298022,0.0211648 0.0593407,0.0317143 0.0881538,0.0317143 0.0464835,0 0.0935604,-0.0207692 0.141626,-0.0624396 0.0483956,-0.0413407 0.0724615,-0.130154 0.0724615,-0.266044l0 -0.455407 0.214088 0 0 0.94833z"/>
  <path class="fil4" d="M12.4825 22.5876l0.193582 0.0263077c-0.024989,0.0855824 -0.074044,0.156396 -0.14644,0.212176 -0.0727912,0.0557143 -0.16378,0.0836044 -0.273429,0.0836044 -0.131341,0 -0.237099,-0.0441758 -0.317275,-0.132659 -0.0801099,-0.0881538 -0.120132,-0.207692 -0.120132,-0.358615 0,-0.143275 0.0403516,-0.261824 0.121121,-0.355714 0.0807692,-0.093956 0.190352,-0.141033 0.328484,-0.141033 0.135231,0 0.239736,0.0464835 0.31378,0.139055 0.0737143,0.0926374 0.110571,0.211516 0.110571,0.356703l-0.000659341 0.0247253 -0.650901 0c0,0.0644176 0.00606593,0.115978 0.0182637,0.154747 0.0121978,0.0387692 0.0365275,0.0724615 0.0727253,0.101275 0.0365275,0.0288791 0.0817582,0.0433187 0.13622,0.0433187 0.105758,0 0.177231,-0.0512967 0.214088,-0.15389zm-0.0131209 -0.283582c-0.000659341,-0.0683077 -0.0211648,-0.124022 -0.0615165,-0.167341 -0.0404176,-0.0429231 -0.0900659,-0.0646813 -0.14967,-0.0646813 -0.059011,0 -0.108,0.0201758 -0.147429,0.0605275 -0.0394286,0.0404176 -0.0625055,0.0974505 -0.0695604,0.171495l0.428176 0z"/>
  <path class="fil4" d="M13.2533 22.6719l0.200967 -0.0385055c0.0307912,0.0769451 0.0983736,0.115714 0.202879,0.115714 0.132659,0 0.198989,-0.0394286 0.198989,-0.117626 0,-0.024989 -0.0102198,-0.0454945 -0.0310549,-0.0618462 -0.0205055,-0.0163516 -0.0449011,-0.0272308 -0.0731209,-0.032967l-0.172681 -0.0327033c-0.19167,-0.0368571 -0.287473,-0.130484 -0.287473,-0.280747 0,-0.084 0.0303956,-0.155143 0.090989,-0.213758 0.0609231,-0.0583516 0.151253,-0.0878242 0.271451,-0.0878242 0.200308,0 0.322747,0.0737143 0.367253,0.220813l-0.190681 0.0384396c-0.0201758,-0.0714725 -0.0768791,-0.107011 -0.170835,-0.107011 -0.114066,0 -0.171099,0.0355385 -0.171099,0.107011 0,0.0493846 0.0461538,0.0836703 0.138132,0.102264l0.203802 0.0422637c0.158308,0.0327033 0.237495,0.123429 0.237495,0.27244 0,0.104505 -0.0406813,0.182703 -0.12211,0.234264 -0.0814286,0.0516264 -0.178154,0.0775385 -0.290044,0.0775385 -0.0971209,0 -0.182637,-0.0198462 -0.257341,-0.0589451 -0.0743736,-0.0390989 -0.123033,-0.0987033 -0.145516,-0.178813z"/>
  <path class="fil4" d="M14.8448 22.5876l0.193582 0.0263077c-0.024989,0.0855824 -0.074044,0.156396 -0.14644,0.212176 -0.0727912,0.0557143 -0.16378,0.0836044 -0.273429,0.0836044 -0.131341,0 -0.237099,-0.0441758 -0.317275,-0.132659 -0.0801099,-0.0881538 -0.120132,-0.207692 -0.120132,-0.358615 0,-0.143275 0.0403516,-0.261824 0.121121,-0.355714 0.0807692,-0.093956 0.190352,-0.141033 0.328484,-0.141033 0.135231,0 0.239736,0.0464835 0.31378,0.139055 0.0737143,0.0926374 0.110571,0.211516 0.110571,0.356703l-0.000659341 0.0247253 -0.650901 0c0,0.0644176 0.00606593,0.115978 0.0182637,0.154747 0.0121978,0.0387692 0.0365275,0.0724615 0.0727253,0.101275 0.0365275,0.0288791 0.0817582,0.0433187 0.13622,0.0433187 0.105758,0 0.177231,-0.0512967 0.214088,-0.15389zm-0.0131209 -0.283582c-0.000659341,-0.0683077 -0.0211648,-0.124022 -0.0615165,-0.167341 -0.0404176,-0.0429231 -0.0900659,-0.0646813 -0.14967,-0.0646813 -0.059011,0 -0.108,0.0201758 -0.147429,0.0605275 -0.0394286,0.0404176 -0.0625055,0.0974505 -0.0695604,0.171495l0.428176 0z"/>
  <path class="fil4" d="M16.0306 22.8898l-0.199055 0 0 -0.204791c-0.0538022,0.14967 -0.153824,0.224637 -0.299604,0.224637 -0.0862418,0 -0.154813,-0.0269011 -0.205451,-0.0804396 -0.050967,-0.0534725 -0.0762857,-0.128176 -0.0762857,-0.223978l0 -0.663758 0.218901 0 0 0.617934c0,0.0682418 0.015033,0.112813 0.0451648,0.134242 0.0298022,0.0211648 0.0593407,0.0317143 0.0881538,0.0317143 0.0464835,0 0.0935604,-0.0207692 0.141626,-0.0624396 0.0483956,-0.0413407 0.0724615,-0.130154 0.0724615,-0.266044l0 -0.455407 0.214088 0 0 0.94833z"/>
  <path class="fil4" d="M17.2077 22.7229l0 0.166945c-0.0637582,0.0137802 -0.113143,0.0205055 -0.148088,0.0205055 -0.0576264,0 -0.107011,-0.0112088 -0.148352,-0.033956 -0.0413407,-0.0230769 -0.0714725,-0.0541978 -0.0907253,-0.0938901 -0.0191868,-0.0397582 -0.0284835,-0.100945 -0.0284835,-0.183626l0 -0.491011 -0.118615 0 0 -0.166352 0.130813 0 0.0195165 -0.247055 0.175648 -0.0156923 0 0.262747 0.190681 0 0 0.166352 -0.190681 0 0 0.462791c0,0.0592747 0.0108791,0.099956 0.0323736,0.121451 0.0217582,0.0217582 0.0624396,0.0323736 0.122374,0.0323736 0.017011,0 0.0349451,-0.000659341 0.0535385,-0.00158242z"/>
  <path class="fil4" d="M17.6023 22.8898l-0.214088 0 0 -0.94833 0.193582 0 0 0.226286c0.0275604,-0.0881538 0.0654066,-0.152571 0.113473,-0.193253 0.0483956,-0.0406813 0.0977143,-0.0611868 0.148352,-0.0611868 0.00705495,0 0.0163516,0.000263736 0.0282198,0.000923077l0 0.23011c-0.108989,0 -0.181055,0.0346154 -0.21633,0.104176 -0.0352747,0.0695604 -0.0532088,0.136813 -0.0532088,0.20189l0 0.439385z"/>
  <path class="fil4" d="M18.8371 22.8898l-0.203802 0c-0.0182637,-0.0576923 -0.0291429,-0.121451 -0.033033,-0.19167 -0.0567033,0.141033 -0.163714,0.211516 -0.321099,0.211516 -0.0945495,0 -0.170176,-0.0278901 -0.227538,-0.0832747 -0.0573626,-0.0554505 -0.0859121,-0.125011 -0.0859121,-0.209011 0,-0.217582 0.191341,-0.326571 0.573692,-0.326571 0.015033,0 0.0352088,0.00032967 0.0608571,0.000989011l0 -0.0714725c0,-0.0983736 -0.066989,-0.147429 -0.200901,-0.147429 -0.130154,0 -0.203868,0.0490549 -0.221473,0.147429l-0.182044 -0.0272308c0.00995604,-0.0788571 0.0506374,-0.143934 0.12178,-0.194835 0.0714725,-0.050967 0.174659,-0.0766154 0.30989,-0.0766154 0.0733846,0 0.133055,0.0063956 0.179473,0.0185934 0.0461538,0.0121978 0.0852527,0.0327033 0.117297,0.0618462 0.032044,0.0291429 0.0541978,0.0605934 0.0663956,0.0948791 0.0121319,0.033956 0.0182637,0.0916484 0.0182637,0.173011l0 0.428176c0,0.0621758 0.0092967,0.126 0.0281538,0.19167zm-0.236835 -0.482637c-0.276527,0 -0.414989,0.066 -0.414989,0.198066 0,0.0394286 0.0141099,0.0730549 0.0419341,0.100945 0.0278901,0.0278901 0.0698901,0.042 0.12633,0.042 0.0813626,0 0.142879,-0.025978 0.184549,-0.0776044 0.0413407,-0.0515604 0.0621758,-0.110242 0.0621758,-0.175912l0 -0.0874945z"/>
  <path class="fil4" d="M19.5044 22.7229l0 0.166945c-0.0637582,0.0137802 -0.113143,0.0205055 -0.148088,0.0205055 -0.0576264,0 -0.107011,-0.0112088 -0.148352,-0.033956 -0.0413407,-0.0230769 -0.0714725,-0.0541978 -0.0907253,-0.0938901 -0.0191868,-0.0397582 -0.0284835,-0.100945 -0.0284835,-0.183626l0 -0.491011 -0.118615 0 0 -0.166352 0.130813 0 0.0195165 -0.247055 0.175648 -0.0156923 0 0.262747 0.190681 0 0 0.166352 -0.190681 0 0 0.462791c0,0.0592747 0.0108791,0.099956 0.0323736,0.121451 0.0217582,0.0217582 0.0624396,0.0323736 0.122374,0.0323736 0.017011,0 0.0349451,-0.000659341 0.0535385,-0.00158242z"/>
  <path class="fil4" d="M20.4963 22.8898l-0.203802 0c-0.0182637,-0.0576923 -0.0291429,-0.121451 -0.033033,-0.19167 -0.0567033,0.141033 -0.163714,0.211516 -0.321099,0.211516 -0.0945495,0 -0.170176,-0.0278901 -0.227538,-0.0832747 -0.0573626,-0.0554505 -0.0859121,-0.125011 -0.0859121,-0.209011 0,-0.217582 0.191341,-0.326571 0.573692,-0.326571 0.015033,0 0.0352088,0.00032967 0.0608571,0.000989011l0 -0.0714725c0,-0.0983736 -0.066989,-0.147429 -0.200901,-0.147429 -0.130154,0 -0.203868,0.0490549 -0.221473,0.147429l-0.182044 -0.0272308c0.00995604,-0.0788571 0.0506374,-0.143934 0.12178,-0.194835 0.0714725,-0.050967 0.174659,-0.0766154 0.30989,-0.0766154 0.0733846,0 0.133055,0.0063956 0.179473,0.0185934 0.0461538,0.0121978 0.0852527,0.0327033 0.117297,0.0618462 0.032044,0.0291429 0.0541978,0.0605934 0.0663956,0.0948791 0.0121319,0.033956 0.0182637,0.0916484 0.0182637,0.173011l0 0.428176c0,0.0621758 0.0092967,0.126 0.0281538,0.19167zm-0.236835 -0.482637c-0.276527,0 -0.414989,0.066 -0.414989,0.198066 0,0.0394286 0.0141099,0.0730549 0.0419341,0.100945 0.0278901,0.0278901 0.0698901,0.042 0.12633,0.042 0.0813626,0 0.142879,-0.025978 0.184549,-0.0776044 0.0413407,-0.0515604 0.0621758,-0.110242 0.0621758,-0.175912l0 -0.0874945z"/>
  <path class="fil4" d="M22.1401 22.8898l-0.224374 0 0 -0.590637c0,-0.122769 -0.0544615,-0.183956 -0.163451,-0.183956 -0.0630989,0 -0.113736,0.0230769 -0.151582,0.0695604 -0.0378462,0.0460879 -0.0567033,0.115319 -0.0567033,0.207297l0 0.497736 -0.227209 0 0 -0.590637c0,-0.124352 -0.050967,-0.186857 -0.153231,-0.186857 -0.0618462,0 -0.113736,0.024989 -0.156066,0.0752967 -0.0423297,0.050044 -0.0634286,0.118286 -0.0634286,0.204462l0 0.497736 -0.220813 0 0 -0.94833 0.207626 0 0 0.201956c0.0676484,-0.147758 0.173077,-0.221802 0.316352,-0.221802 0.139714,0 0.23044,0.074044 0.272374,0.221802 0.0762857,-0.147758 0.181714,-0.221802 0.316352,-0.221802 0.0913187,0 0.165033,0.0285495 0.220813,0.0855824 0.0554505,0.057033 0.0833407,0.127846 0.0833407,0.21211l0 0.670484z"/>
  <path class="fil4" d="M23.0002 22.5876l0.193582 0.0263077c-0.024989,0.0855824 -0.074044,0.156396 -0.14644,0.212176 -0.0727912,0.0557143 -0.16378,0.0836044 -0.273429,0.0836044 -0.131341,0 -0.237099,-0.0441758 -0.317275,-0.132659 -0.0801099,-0.0881538 -0.120132,-0.207692 -0.120132,-0.358615 0,-0.143275 0.0403516,-0.261824 0.121121,-0.355714 0.0807692,-0.093956 0.190352,-0.141033 0.328484,-0.141033 0.135231,0 0.239736,0.0464835 0.31378,0.139055 0.0737143,0.0926374 0.110571,0.211516 0.110571,0.356703l-0.000659341 0.0247253 -0.650901 0c0,0.0644176 0.00606593,0.115978 0.0182637,0.154747 0.0121978,0.0387692 0.0365275,0.0724615 0.0727253,0.101275 0.0365275,0.0288791 0.0817582,0.0433187 0.13622,0.0433187 0.105758,0 0.177231,-0.0512967 0.214088,-0.15389zm-0.0131209 -0.283582c-0.000659341,-0.0683077 -0.0211648,-0.124022 -0.0615165,-0.167341 -0.0404176,-0.0429231 -0.0900659,-0.0646813 -0.14967,-0.0646813 -0.059011,0 -0.108,0.0201758 -0.147429,0.0605275 -0.0394286,0.0404176 -0.0625055,0.0974505 -0.0695604,0.171495l0.428176 0z"/>
  <path class="fil4" d="M24.1909 22.8898l-0.214088 0 0 -0.592549c0,-0.0625055 -0.0144396,-0.109648 -0.0432527,-0.141363 -0.0288791,-0.0313846 -0.0634945,-0.0474066 -0.104176,-0.0474066 -0.0557802,0 -0.104835,0.0246593 -0.14644,0.0733846 -0.042,0.0487253 -0.0631648,0.12244 -0.0631648,0.220484l0 0.487451 -0.214088 0 0 -0.94833 0.195495 0 0 0.21989c0.0682418,-0.159626 0.16378,-0.239736 0.287143,-0.239736 0.0833407,0 0.154484,0.0265714 0.213758,0.0791868 0.059011,0.0525495 0.0888132,0.144857 0.0888132,0.276857l0 0.612132z"/>
  <path class="fil4" d="M24.8863 22.7229l0 0.166945c-0.0637582,0.0137802 -0.113143,0.0205055 -0.148088,0.0205055 -0.0576264,0 -0.107011,-0.0112088 -0.148352,-0.033956 -0.0413407,-0.0230769 -0.0714725,-0.0541978 -0.0907253,-0.0938901 -0.0191868,-0.0397582 -0.0284835,-0.100945 -0.0284835,-0.183626l0 -0.491011 -0.118615 0 0 -0.166352 0.130813 0 0.0195165 -0.247055 0.175648 -0.0156923 0 0.262747 0.190681 0 0 0.166352 -0.190681 0 0 0.462791c0,0.0592747 0.0108791,0.099956 0.0323736,0.121451 0.0217582,0.0217582 0.0624396,0.0323736 0.122374,0.0323736 0.017011,0 0.0349451,-0.000659341 0.0535385,-0.00158242z"/>
  <path class="fil4" d="M25.4033 22.9096c-0.140374,0 -0.247451,-0.0506374 -0.321165,-0.151253 -0.073978,-0.100945 -0.110835,-0.21633 -0.110835,-0.346418 0,-0.140374 0.0406813,-0.257077 0.122374,-0.350308 0.0817582,-0.0932308 0.189758,-0.140044 0.323736,-0.140044 0.126857,0 0.231363,0.0454945 0.313121,0.13622 0.0813626,0.0906593 0.122374,0.208945 0.122374,0.354132 0,0.14967 -0.0422637,0.269802 -0.127187,0.360857 -0.0849231,0.090989 -0.19233,0.136813 -0.322418,0.136813zm0.00738462 -0.176571c0.143868,0 0.216,-0.107341 0.216,-0.322088 0,-0.0971209 -0.0173407,-0.17367 -0.0516264,-0.229451 -0.0346154,-0.0561099 -0.0874945,-0.0842637 -0.158637,-0.0842637 -0.074044,0 -0.128835,0.0291429 -0.164374,0.0868352 -0.0356044,0.058022 -0.0535385,0.134901 -0.0535385,0.230703 0,0.103253 0.0189231,0.182044 0.0567033,0.236571 0.0378462,0.0544615 0.0897363,0.0816923 0.155473,0.0816923z"/>
  <path class="fil4" d="M4.81523 24.7216l0.184286 0.0189231c-0.0240659,0.118945 -0.0698901,0.206703 -0.138132,0.263802 -0.0682418,0.057033 -0.150593,0.0855165 -0.247055,0.0855165 -0.130813,0 -0.231429,-0.0477363 -0.301582,-0.143209 -0.0705495,-0.0955385 -0.105758,-0.212505 -0.105758,-0.350967 0,-0.142615 0.0384396,-0.260571 0.115319,-0.353802 0.0772747,-0.0932308 0.179802,-0.140044 0.308044,-0.140044 0.206703,0 0.329736,0.108989 0.369165,0.326901l-0.184286 0.0253187c-0.016022,-0.117626 -0.074044,-0.176571 -0.17367,-0.176571 -0.0724615,0 -0.125341,0.0317143 -0.158044,0.0954725 -0.032967,0.0634286 -0.0493187,0.140374 -0.0493187,0.23044 0,0.0958022 0.0169451,0.169516 0.0512967,0.221473 0.033956,0.0518901 0.0816923,0.0781978 0.142879,0.0781978 0.093956,0 0.156396,-0.0605934 0.186857,-0.181451z"/>
  <path class="fil4" d="M5.53477 25.0899c-0.140374,0 -0.247451,-0.0506374 -0.321165,-0.151253 -0.073978,-0.100945 -0.110835,-0.21633 -0.110835,-0.346418 0,-0.140374 0.0406813,-0.257077 0.122374,-0.350308 0.0817582,-0.0932308 0.189758,-0.140044 0.323736,-0.140044 0.126857,0 0.231363,0.0454945 0.313121,0.13622 0.0813626,0.0906593 0.122374,0.208945 0.122374,0.354132 0,0.14967 -0.0422637,0.269802 -0.127187,0.360857 -0.0849231,0.090989 -0.19233,0.136813 -0.322418,0.136813zm0.00738462 -0.176571c0.143868,0 0.216,-0.107341 0.216,-0.322088 0,-0.0971209 -0.0173407,-0.17367 -0.0516264,-0.229451 -0.0346154,-0.0561099 -0.0874945,-0.0842637 -0.158637,-0.0842637 -0.074044,0 -0.128835,0.0291429 -0.164374,0.0868352 -0.0356044,0.058022 -0.0535385,0.134901 -0.0535385,0.230703 0,0.103253 0.0189231,0.182044 0.0567033,0.236571 0.0378462,0.0544615 0.0897363,0.0816923 0.155473,0.0816923z"/>
  <path class="fil4" d="M7.59646 25.07l-0.224374 0 0 -0.590637c0,-0.122769 -0.0544615,-0.183956 -0.163451,-0.183956 -0.0630989,0 -0.113736,0.0230769 -0.151582,0.0695604 -0.0378462,0.0460879 -0.0567033,0.115319 -0.0567033,0.207297l0 0.497736 -0.227209 0 0 -0.590637c0,-0.124352 -0.050967,-0.186857 -0.153231,-0.186857 -0.0618462,0 -0.113736,0.024989 -0.156066,0.0752967 -0.0423297,0.050044 -0.0634286,0.118286 -0.0634286,0.204462l0 0.497736 -0.220813 0 0 -0.94833 0.207626 0 0 0.201956c0.0676484,-0.147758 0.173077,-0.221802 0.316352,-0.221802 0.139714,0 0.23044,0.074044 0.272374,0.221802 0.0762857,-0.147758 0.181714,-0.221802 0.316352,-0.221802 0.0913187,0 0.165033,0.0285495 0.220813,0.0855824 0.0554505,0.057033 0.0833407,0.127846 0.0833407,0.21211l0 0.670484z"/>
  <path class="fil4" d="M8.77391 24.9031l0 0.166945c-0.0637582,0.0137802 -0.113143,0.0205055 -0.148088,0.0205055 -0.0576264,0 -0.107011,-0.0112088 -0.148352,-0.033956 -0.0413407,-0.0230769 -0.0714725,-0.0541978 -0.0907253,-0.0938901 -0.0191868,-0.0397582 -0.0284835,-0.100945 -0.0284835,-0.183626l0 -0.491011 -0.118615 0 0 -0.166352 0.130813 0 0.0195165 -0.247055 0.175648 -0.0156923 0 0.262747 0.190681 0 0 0.166352 -0.190681 0 0 0.462791c0,0.0592747 0.0108791,0.099956 0.0323736,0.121451 0.0217582,0.0217582 0.0624396,0.0323736 0.122374,0.0323736 0.017011,0 0.0349451,-0.000659341 0.0535385,-0.00158242z"/>
  <path class="fil4" d="M9.16846 25.07l-0.214088 0 0 -0.94833 0.193582 0 0 0.226286c0.0275604,-0.0881538 0.0654066,-0.152571 0.113473,-0.193253 0.0483956,-0.0406813 0.0977143,-0.0611868 0.148352,-0.0611868 0.00705495,0 0.0163516,0.000263736 0.0282198,0.000923077l0 0.23011c-0.108989,0 -0.181055,0.0346154 -0.21633,0.104176 -0.0352747,0.0695604 -0.0532088,0.136813 -0.0532088,0.20189l0 0.439385z"/>
  <path class="fil4" d="M10.4033 25.07l-0.203802 0c-0.0182637,-0.0576923 -0.0291429,-0.121451 -0.033033,-0.19167 -0.0567033,0.141033 -0.163714,0.211516 -0.321099,0.211516 -0.0945495,0 -0.170176,-0.0278901 -0.227538,-0.0832747 -0.0573626,-0.0554505 -0.0859121,-0.125011 -0.0859121,-0.209011 0,-0.217582 0.191341,-0.326571 0.573692,-0.326571 0.015033,0 0.0352088,0.00032967 0.0608571,0.000989011l0 -0.0714725c0,-0.0983736 -0.066989,-0.147429 -0.200901,-0.147429 -0.130154,0 -0.203868,0.0490549 -0.221473,0.147429l-0.182044 -0.0272308c0.00995604,-0.0788571 0.0506374,-0.143934 0.12178,-0.194835 0.0714725,-0.050967 0.174659,-0.0766154 0.30989,-0.0766154 0.0733846,0 0.133055,0.0063956 0.179473,0.0185934 0.0461538,0.0121978 0.0852527,0.0327033 0.117297,0.0618462 0.032044,0.0291429 0.0541978,0.0605934 0.0663956,0.0948791 0.0121319,0.033956 0.0182637,0.0916484 0.0182637,0.173011l0 0.428176c0,0.0621758 0.0092967,0.126 0.0281538,0.19167zm-0.236835 -0.482637c-0.276527,0 -0.414989,0.066 -0.414989,0.198066 0,0.0394286 0.0141099,0.0730549 0.0419341,0.100945 0.0278901,0.0278901 0.0698901,0.042 0.12633,0.042 0.0813626,0 0.142879,-0.025978 0.184549,-0.0776044 0.0413407,-0.0515604 0.0621758,-0.110242 0.0621758,-0.175912l0 -0.0874945z"/>
  <path class="fil4" d="M11.4164 25.07l-0.214088 0 0 -0.592549c0,-0.0625055 -0.0144396,-0.109648 -0.0432527,-0.141363 -0.0288791,-0.0313846 -0.0634945,-0.0474066 -0.104176,-0.0474066 -0.0557802,0 -0.104835,0.0246593 -0.14644,0.0733846 -0.042,0.0487253 -0.0631648,0.12244 -0.0631648,0.220484l0 0.487451 -0.214088 0 0 -0.94833 0.195495 0 0 0.21989c0.0682418,-0.159626 0.16378,-0.239736 0.287143,-0.239736 0.0833407,0 0.154484,0.0265714 0.213758,0.0791868 0.059011,0.0525495 0.0888132,0.144857 0.0888132,0.276857l0 0.612132z"/>
  <path class="fil4" d="M12.4576 25.3902l-0.222725 0 0 -0.487121c-0.0506374,0.124352 -0.138462,0.186791 -0.263802,0.186791 -0.120132,0 -0.210198,-0.0493187 -0.269802,-0.147429 -0.0599341,-0.0983736 -0.0897363,-0.212769 -0.0897363,-0.342857 0,-0.146505 0.0348791,-0.266044 0.105099,-0.358681 0.0701538,-0.0925714 0.167275,-0.139055 0.290967,-0.139055 0.116044,0 0.208681,0.050967 0.277912,0.152242l0.0573626 -0.132396 0.114725 0 0 1.26851zm-0.222725 -0.876857c0,-0.0621758 -0.0141099,-0.116967 -0.0426593,-0.16444 -0.0284835,-0.0474066 -0.074967,-0.0714066 -0.139385,-0.0714066 -0.0695604,0 -0.122769,0.0288132 -0.159626,0.0858462 -0.0368571,0.0573626 -0.0554505,0.13556 -0.0554505,0.234264 0,0.101604 0.0189231,0.180462 0.0567692,0.236835 0.0377802,0.0561099 0.0858462,0.0843297 0.144198,0.0843297 0.0532088,0 0.0993626,-0.0237363 0.138132,-0.0718022 0.0387692,-0.0477363 0.058022,-0.113473 0.058022,-0.196747l0 -0.136879z"/>
  <path class="fil4" d="M13.494 25.07l-0.199055 0 0 -0.204791c-0.0538022,0.14967 -0.153824,0.224637 -0.299604,0.224637 -0.0862418,0 -0.154813,-0.0269011 -0.205451,-0.0804396 -0.050967,-0.0534725 -0.0762857,-0.128176 -0.0762857,-0.223978l0 -0.663758 0.218901 0 0 0.617934c0,0.0682418 0.015033,0.112813 0.0451648,0.134242 0.0298022,0.0211648 0.0593407,0.0317143 0.0881538,0.0317143 0.0464835,0 0.0935604,-0.0207692 0.141626,-0.0624396 0.0483956,-0.0413407 0.0724615,-0.130154 0.0724615,-0.266044l0 -0.455407 0.214088 0 0 0.94833z"/>
  <path class="fil4" d="M13.9641 24.0108l-0.214022 0 0 -0.222396 0.214022 0 0 0.222396zm0 1.05923l-0.214022 0 0 -0.94833 0.214022 0 0 0.94833z"/>
  <polygon class="fil4" points="14.4345,25.07 14.2205,25.07 14.2205,23.7884 14.4345,23.7884 "/>
  <path class="fil4" d="M14.905 24.0108l-0.214022 0 0 -0.222396 0.214022 0 0 0.222396zm0 1.05923l-0.214022 0 0 -0.94833 0.214022 0 0 0.94833z"/>
  <path class="fil4" d="M15.9417 25.07l-0.199978 0 0 -0.19167c-0.0551209,0.141033 -0.148352,0.211516 -0.279758,0.211516 -0.116374,0 -0.20578,-0.0486593 -0.267626,-0.14578 -0.0618462,-0.0967912 -0.0929011,-0.217319 -0.0929011,-0.361516 0,-0.133648 0.0323736,-0.250615 0.0967912,-0.349978 0.0644176,-0.0996923 0.156066,-0.149341 0.274945,-0.149341 0.12211,0 0.207033,0.0557802 0.25444,0.166945l0 -0.461802 0.214088 0 0 1.28163zm-0.214088 -0.559582c0,-0.0768791 -0.0182637,-0.136813 -0.0547912,-0.179802 -0.0368571,-0.0429231 -0.0842637,-0.0644176 -0.142286,-0.0644176 -0.0631648,0 -0.112813,0.0275604 -0.148352,0.0826813 -0.0356044,0.0551868 -0.0535385,0.137538 -0.0535385,0.246791 0,0.211846 0.0663297,0.317604 0.198989,0.317604 0.0525495,0 0.099033,-0.0227473 0.139451,-0.0682418 0.0403516,-0.0452308 0.0605275,-0.103187 0.0605275,-0.174066l0 -0.160549z"/>
  <path class="fil4" d="M17.0093 25.07l-0.203802 0c-0.0182637,-0.0576923 -0.0291429,-0.121451 -0.033033,-0.19167 -0.0567033,0.141033 -0.163714,0.211516 -0.321099,0.211516 -0.0945495,0 -0.170176,-0.0278901 -0.227538,-0.0832747 -0.0573626,-0.0554505 -0.0859121,-0.125011 -0.0859121,-0.209011 0,-0.217582 0.191341,-0.326571 0.573692,-0.326571 0.015033,0 0.0352088,0.00032967 0.0608571,0.000989011l0 -0.0714725c0,-0.0983736 -0.066989,-0.147429 -0.200901,-0.147429 -0.130154,0 -0.203868,0.0490549 -0.221473,0.147429l-0.182044 -0.0272308c0.00995604,-0.0788571 0.0506374,-0.143934 0.12178,-0.194835 0.0714725,-0.050967 0.174659,-0.0766154 0.30989,-0.0766154 0.0733846,0 0.133055,0.0063956 0.179473,0.0185934 0.0461538,0.0121978 0.0852527,0.0327033 0.117297,0.0618462 0.032044,0.0291429 0.0541978,0.0605934 0.0663956,0.0948791 0.0121319,0.033956 0.0182637,0.0916484 0.0182637,0.173011l0 0.428176c0,0.0621758 0.0092967,0.126 0.0281538,0.19167zm-0.236835 -0.482637c-0.276527,0 -0.414989,0.066 -0.414989,0.198066 0,0.0394286 0.0141099,0.0730549 0.0419341,0.100945 0.0278901,0.0278901 0.0698901,0.042 0.12633,0.042 0.0813626,0 0.142879,-0.025978 0.184549,-0.0776044 0.0413407,-0.0515604 0.0621758,-0.110242 0.0621758,-0.175912l0 -0.0874945z"/>
  <path class="fil4" d="M18.0165 25.07l-0.199978 0 0 -0.19167c-0.0551209,0.141033 -0.148352,0.211516 -0.279758,0.211516 -0.116374,0 -0.20578,-0.0486593 -0.267626,-0.14578 -0.0618462,-0.0967912 -0.0929011,-0.217319 -0.0929011,-0.361516 0,-0.133648 0.0323736,-0.250615 0.0967912,-0.349978 0.0644176,-0.0996923 0.156066,-0.149341 0.274945,-0.149341 0.12211,0 0.207033,0.0557802 0.25444,0.166945l0 -0.461802 0.214088 0 0 1.28163zm-0.214088 -0.559582c0,-0.0768791 -0.0182637,-0.136813 -0.0547912,-0.179802 -0.0368571,-0.0429231 -0.0842637,-0.0644176 -0.142286,-0.0644176 -0.0631648,0 -0.112813,0.0275604 -0.148352,0.0826813 -0.0356044,0.0551868 -0.0535385,0.137538 -0.0535385,0.246791 0,0.211846 0.0663297,0.317604 0.198989,0.317604 0.0525495,0 0.099033,-0.0227473 0.139451,-0.0682418 0.0403516,-0.0452308 0.0605275,-0.103187 0.0605275,-0.174066l0 -0.160549z"/>
  <path class="fil4" d="M18.8755 24.7678l0.193582 0.0263077c-0.024989,0.0855824 -0.074044,0.156396 -0.14644,0.212176 -0.0727912,0.0557143 -0.16378,0.0836044 -0.273429,0.0836044 -0.131341,0 -0.237099,-0.0441758 -0.317275,-0.132659 -0.0801099,-0.0881538 -0.120132,-0.207692 -0.120132,-0.358615 0,-0.143275 0.0403516,-0.261824 0.121121,-0.355714 0.0807692,-0.093956 0.190352,-0.141033 0.328484,-0.141033 0.135231,0 0.239736,0.0464835 0.31378,0.139055 0.0737143,0.0926374 0.110571,0.211516 0.110571,0.356703l-0.000659341 0.0247253 -0.650901 0c0,0.0644176 0.00606593,0.115978 0.0182637,0.154747 0.0121978,0.0387692 0.0365275,0.0724615 0.0727253,0.101275 0.0365275,0.0288791 0.0817582,0.0433187 0.13622,0.0433187 0.105758,0 0.177231,-0.0512967 0.214088,-0.15389zm-0.0131209 -0.283582c-0.000659341,-0.0683077 -0.0211648,-0.124022 -0.0615165,-0.167341 -0.0404176,-0.0429231 -0.0900659,-0.0646813 -0.14967,-0.0646813 -0.059011,0 -0.108,0.0201758 -0.147429,0.0605275 -0.0394286,0.0404176 -0.0625055,0.0974505 -0.0695604,0.171495l0.428176 0z"/>
  <polygon class="fil4" points="19.4998,24.8239 19.4998,25.07 19.2678,25.07 19.2678,24.8239 "/>
 </g>
</svg>
